<svg xmlns="http://www.w3.org/2000/svg" viewBox="0 0 32 40" x="0px" y="0px"><g data-name="Layer 2"><path d="M29.71,15.29l-13-13a1,1,0,0,0-1.42,0l-13,13a1,1,0,0,0-.21,1.09A1,1,0,0,0,3,17H6V29a1,1,0,0,0,1,1h6a1,1,0,0,0,1-1V24a1,1,0,0,1,1-1h2a1,1,0,0,1,1,1v5a1,1,0,0,0,1,1h6a1,1,0,0,0,1-1V17h3a1,1,0,0,0,.92-.62A1,1,0,0,0,29.71,15.29ZM25,15a1,1,0,0,0-1,1V28H20V24a3,3,0,0,0-3-3H15a3,3,0,0,0-3,3v4H8V16a1,1,0,0,0-1-1H5.41L16,4.41,26.59,15Z"/></g><text x="0" y="47" fill="#000000" font-size="5px" font-weight="bold" font-family="'Helvetica Neue', Helvetica, Arial-Unicode, Arial, Sans-serif">Created by scorpicon</text><text x="0" y="52" fill="#000000" font-size="5px" font-weight="bold" font-family="'Helvetica Neue', Helvetica, Arial-Unicode, Arial, Sans-serif">from the Noun Project</text></svg>